<?xml version="1.0" standalone="no"?>
<!DOCTYPE svg PUBLIC "-//W3C//DTD SVG 20010904//EN"
 "http://www.w3.org/TR/2001/REC-SVG-20010904/DTD/svg10.dtd">
<svg version="1.0" xmlns="http://www.w3.org/2000/svg"
 width="1317.000000pt" height="1317.000000pt" viewBox="0 0 1317.000000 1317.000000"
 preserveAspectRatio="xMidYMid meet">
<metadata>
Created by potrace 1.14, written by Peter Selinger 2001-2017
</metadata>
<g transform="translate(0.000000,1317.000000) scale(0.100000,-0.100000)"
fill="#000000" stroke="none">
<path d="M6556 13155 c-3 -9 -21 -40 -39 -68 -112 -172 -157 -252 -151 -270 3
-10 7 -29 9 -40 1 -12 13 -78 25 -147 12 -69 24 -138 26 -155 2 -16 8 -50 14
-75 8 -37 24 -126 54 -305 36 -210 61 -334 67 -328 4 5 10 26 13 48 3 22 16
96 30 165 14 69 27 136 30 150 5 31 54 288 100 523 l34 178 -90 152 c-118 198
-114 192 -122 172z"/>
<path d="M5556 13098 c-4 -11 -22 -119 -31 -188 -2 -14 -9 -59 -16 -100 -7
-41 -12 -84 -12 -95 0 -11 31 -72 70 -135 121 -197 485 -803 511 -850 33 -60
36 -62 27 -15 -4 22 -9 51 -11 65 -2 14 -7 36 -10 50 -3 14 -8 36 -11 50 -2
13 -20 103 -39 200 -19 96 -37 187 -39 203 -3 15 -12 59 -20 97 -8 38 -17 84
-20 102 -4 18 -22 109 -40 203 -40 194 -19 163 -210 316 -141 112 -144 114
-149 97z"/>
<path d="M7448 13028 c-58 -46 -120 -94 -138 -108 -79 -60 -76 -55 -110 -225
-18 -88 -33 -164 -35 -170 -3 -15 -17 -88 -21 -108 -2 -10 -5 -26 -8 -35 -3
-9 -7 -35 -11 -57 -3 -22 -7 -47 -10 -55 -2 -8 -6 -26 -9 -40 -2 -14 -16 -81
-30 -150 -13 -69 -27 -136 -30 -150 -2 -14 -14 -69 -25 -124 -12 -54 -21 -103
-21 -110 0 -6 25 30 55 79 30 50 171 279 313 510 l258 419 -13 71 c-13 73 -23
136 -28 170 -9 61 -27 160 -29 163 -2 1 -51 -34 -108 -80z"/>
<path d="M4499 12548 c5 -13 28 -106 51 -208 l43 -185 130 -100 c72 -55 164
-126 206 -158 42 -31 83 -63 91 -70 8 -7 71 -55 140 -107 69 -52 127 -97 130
-100 3 -3 66 -52 140 -109 74 -57 141 -109 149 -115 17 -13 17 -13 -43 79 -62
95 -197 302 -256 395 -30 46 -91 139 -135 207 -44 67 -115 177 -157 242 l-78
120 -202 65 c-112 37 -206 66 -210 66 -4 0 -4 -10 1 -22z"/>
<path d="M8495 12513 c-60 -19 -114 -36 -120 -37 -75 -19 -165 -51 -168 -60
-4 -10 -332 -510 -567 -863 -68 -102 -100 -158 -86 -151 11 6 23 14 26 17 3 3
220 167 482 364 440 330 478 361 487 395 5 20 23 100 41 177 17 77 35 152 40
168 12 35 5 35 -135 -10z"/>
<path d="M6306 12065 c6 -63 12 -113 19 -155 2 -14 7 -52 11 -84 10 -89 9 -89
27 -92 20 -3 21 13 6 71 -5 22 -11 51 -14 65 -2 14 -8 45 -14 70 -5 25 -13 61
-17 80 -17 91 -23 105 -18 45z"/>
<path d="M6826 12099 c-14 -64 -76 -366 -76 -372 0 -18 30 -4 35 16 6 31 20
130 29 212 3 28 10 75 15 105 9 55 7 83 -3 39z"/>
<path d="M6692 11970 c0 -14 2 -19 5 -12 2 6 2 18 0 25 -3 6 -5 1 -5 -13z"/>
<path d="M6432 11960 c0 -14 2 -19 5 -12 2 6 2 18 0 25 -3 6 -5 1 -5 -13z"/>
<path d="M5610 11931 c0 -6 4 -13 10 -16 6 -3 7 1 4 9 -7 18 -14 21 -14 7z"/>
<path d="M6679 11918 c-1 -25 -2 -32 -18 -108 -13 -62 -14 -80 -2 -80 4 0 11
17 15 38 11 63 19 172 12 172 -3 0 -6 -10 -7 -22z"/>
<path d="M6921 11924 c0 -11 3 -14 6 -6 3 7 2 16 -1 19 -3 4 -6 -2 -5 -13z"/>
<path d="M6192 11925 c3 -5 15 -55 28 -110 20 -90 41 -143 40 -104 -1 24 -55
208 -65 216 -4 4 -6 4 -3 -2z"/>
<path d="M6437 11852 c6 -104 8 -118 19 -112 10 6 10 9 -1 108 -10 98 -24 101
-18 4z"/>
<path d="M7390 11739 c-85 -138 -109 -184 -100 -192 13 -14 11 -16 88 128 29
55 71 133 92 173 22 39 38 72 36 72 -2 0 -54 -81 -116 -181z"/>
<path d="M6907 11878 c-3 -13 -14 -54 -25 -93 -12 -38 -17 -74 -13 -78 5 -5
18 35 31 88 12 53 20 99 17 101 -2 3 -7 -5 -10 -18z"/>
<path d="M5640 11874 c0 -5 6 -18 14 -29 7 -11 46 -84 86 -162 52 -101 77
-140 87 -136 19 7 15 17 -74 163 -81 132 -113 179 -113 164z"/>
<path d="M5850 11830 c6 -11 13 -20 16 -20 2 0 0 9 -6 20 -6 11 -13 20 -16 20
-2 0 0 -9 6 -20z"/>
<path d="M3810 11827 c-3 -3 -43 -8 -90 -11 -104 -8 -182 -15 -235 -21 -22 -3
-76 -8 -120 -11 -44 -3 -82 -8 -84 -9 -3 -3 30 -54 52 -80 5 -5 68 -91 140
-189 l132 -180 710 -178 c391 -98 722 -180 737 -183 15 -3 38 -9 52 -15 15 -5
26 -8 26 -5 0 2 19 -2 41 -10 23 -8 47 -15 53 -15 6 0 -63 49 -154 108 -91 60
-250 165 -355 233 -104 69 -264 174 -355 234 -91 59 -239 157 -330 217 -149
99 -206 128 -220 115z"/>
<path d="M7202 11734 c-34 -52 -62 -100 -62 -105 0 -19 19 -8 32 19 8 15 33
62 57 105 23 42 40 77 38 77 -2 0 -32 -43 -65 -96z"/>
<path d="M9265 11795 c-42 -28 -152 -97 -890 -568 -60 -39 -139 -89 -175 -112
-71 -47 -215 -138 -270 -173 -45 -28 -35 -27 86 2 54 14 110 27 124 29 14 3
63 14 110 26 72 17 129 30 200 46 8 2 161 38 340 80 179 42 336 78 350 81 14
3 43 10 65 16 22 5 50 12 63 14 13 3 78 18 144 33 104 25 125 33 144 58 50 61
314 416 311 419 -1 1 -36 5 -77 9 -41 4 -82 9 -91 10 -9 2 -52 6 -95 10 -43 4
-86 9 -95 10 -9 2 -52 6 -95 10 -43 4 -90 8 -104 10 -14 2 -34 -2 -45 -10z"/>
<path d="M5870 11798 c0 -14 93 -178 101 -178 15 0 11 13 -16 52 -14 20 -25
39 -25 42 0 5 -46 76 -56 85 -2 2 -4 2 -4 -1z"/>
<path d="M5555 11615 c22 -27 42 -52 45 -55 3 -3 22 -26 43 -52 21 -27 43 -48
49 -48 17 0 5 15 -87 111 -49 52 -72 72 -50 44z"/>
<path d="M6535 11603 c19 -106 7 -189 -42 -303 -21 -48 -93 -193 -103 -205
-26 -33 -52 -159 -57 -275 -4 -109 -8 -130 -28 -160 -43 -64 -178 -207 -271
-285 -91 -77 -178 -166 -208 -214 -36 -57 -72 -152 -86 -229 -26 -147 -4 -380
47 -491 50 -106 172 -286 256 -375 19 -19 32 -37 30 -39 -2 -3 1 -17 7 -32 6
-15 12 -60 15 -100 2 -40 6 -85 9 -101 3 -16 8 -54 11 -84 3 -30 8 -66 10 -80
2 -14 7 -50 10 -80 6 -54 9 -79 19 -151 3 -20 8 -62 12 -95 4 -32 8 -66 9 -74
1 -8 5 -46 9 -85 4 -38 10 -81 12 -95 2 -14 11 -83 20 -155 9 -71 18 -141 19
-155 2 -14 7 -58 11 -97 6 -72 6 -73 -17 -74 -13 -1 -33 -3 -44 -4 -11 -1 -47
-5 -80 -9 -135 -16 -366 -72 -534 -131 -412 -144 -760 -365 -1086 -690 -173
-174 -197 -200 -307 -346 -207 -273 -351 -553 -447 -867 -22 -73 -43 -143 -45
-155 -2 -12 -10 -44 -16 -72 -16 -68 -30 -150 -36 -205 -2 -25 -7 -54 -9 -66
-19 -86 -26 -476 -12 -659 33 -419 151 -809 355 -1170 170 -302 463 -646 731
-861 13 -10 38 -30 55 -44 164 -135 445 -298 676 -393 128 -53 325 -117 410
-133 14 -3 41 -9 60 -14 19 -5 55 -12 80 -15 24 -4 47 -8 50 -10 3 -2 35 -7
70 -10 36 -4 67 -8 70 -10 42 -25 740 -25 781 0 3 2 27 6 55 10 27 3 56 7 64
10 8 2 35 7 60 10 230 31 647 183 869 317 34 21 65 38 68 38 8 0 275 186 298
207 11 10 30 25 41 34 34 23 171 147 244 219 240 240 447 534 589 833 66 139
97 224 171 462 9 31 45 196 54 250 19 115 21 130 33 240 10 101 10 483 0 595
-40 437 -171 838 -394 1209 -41 68 -79 129 -84 135 -4 6 -38 52 -75 101 -37
50 -92 119 -123 155 -85 99 -306 318 -396 390 -44 35 -82 67 -85 70 -9 10
-204 145 -255 177 -177 109 -395 210 -590 272 -185 59 -184 59 -270 75 -11 2
-38 9 -60 14 -45 12 -84 18 -170 28 -33 4 -67 8 -75 9 -11 1 -15 13 -14 41 1
41 12 241 19 334 3 50 12 191 20 330 6 95 16 263 20 315 2 28 6 106 10 175 3
69 9 143 12 165 3 22 6 56 7 77 0 20 4 34 8 32 13 -8 132 91 182 152 61 75
155 249 172 321 19 81 10 175 -31 328 -20 77 -38 147 -40 155 -2 8 -20 82 -40
164 -30 122 -36 161 -32 212 5 59 34 135 57 149 5 3 10 10 10 15 0 22 -140
-71 -188 -124 -102 -113 -148 -231 -145 -368 0 -27 -2 -48 -5 -48 -4 0 -18 17
-32 37 -34 49 -36 122 -6 211 13 37 23 70 24 75 0 8 12 80 18 111 2 11 4 56 5
100 2 131 -48 245 -191 442 l-68 93 -2 88 c-4 181 -18 267 -56 352 -57 124
-112 182 -99 104z m95 -1098 c0 -8 5 -15 11 -15 5 0 7 -4 4 -10 -3 -5 -15 -10
-26 -10 -14 0 -19 7 -19 25 0 16 6 25 15 25 8 0 15 -7 15 -15z m0 -87 c0 -18
-5 -28 -15 -28 -8 0 -15 -6 -16 -12 -1 -7 -2 -21 -3 -30 0 -10 -4 -18 -8 -18
-36 0 -38 1 -38 35 0 23 4 34 13 33 6 -2 13 6 13 17 1 11 2 23 3 27 1 4 12 7
26 6 20 -2 25 -8 25 -30z"/>
<path d="M7502 11554 c-45 -48 -79 -90 -76 -95 3 -5 19 8 37 29 18 20 34 39
37 42 16 16 90 110 87 110 -2 0 -41 -39 -85 -86z"/>
<path d="M5300 11417 c0 -3 35 -30 78 -63 42 -32 84 -64 94 -72 10 -8 18 -10
22 -3 6 9 -42 45 -156 117 -21 14 -38 23 -38 21z"/>
<path d="M7735 11354 c-55 -36 -102 -70 -104 -76 -2 -6 3 -9 11 -6 20 8 212
148 202 147 -5 0 -54 -30 -109 -65z"/>
<path d="M5055 11403 c40 -40 324 -261 329 -256 15 15 2 32 -46 63 -29 19 -55
37 -58 40 -6 7 -197 141 -219 154 -11 6 -13 5 -6 -1z"/>
<path d="M7900 11279 c-164 -113 -178 -125 -165 -138 6 -6 63 33 153 103 217
172 219 178 12 35z"/>
<path d="M5090 11167 c0 -5 180 -114 203 -123 9 -3 17 -2 17 2 0 5 -50 35
-110 67 -61 31 -110 56 -110 54z"/>
<path d="M7924 11101 c-62 -33 -109 -63 -105 -69 5 -8 194 98 219 122 11 12
-5 4 -114 -53z"/>
<path d="M4987 10840 c5 -4 44 -16 88 -28 44 -11 88 -24 98 -27 9 -4 17 -3 17
3 0 6 -10 14 -22 18 -39 13 -189 41 -181 34z"/>
<path d="M8080 10819 c-19 -5 -51 -11 -70 -14 -67 -10 -83 -16 -74 -25 7 -7
156 25 209 45 20 7 -31 3 -65 -6z"/>
<path d="M2930 10739 c-25 -8 -52 -19 -60 -22 -8 -4 -76 -29 -150 -57 -74 -28
-144 -54 -155 -59 -11 -6 -71 -29 -133 -52 -62 -23 -109 -46 -105 -50 4 -3
112 -60 238 -124 127 -65 265 -135 308 -157 l77 -40 110 6 c60 4 124 8 142 11
18 2 76 6 128 10 52 4 118 8 145 10 28 2 88 6 135 10 47 3 108 8 135 10 28 3
82 7 120 10 39 3 97 7 130 10 33 3 96 7 140 10 75 5 113 8 275 20 105 8 180
14 265 20 44 3 103 8 130 10 106 10 221 18 253 19 60 1 33 11 -90 35 -68 12
-188 36 -268 52 -80 16 -160 32 -179 35 -18 3 -43 8 -55 10 -11 3 -57 12 -101
20 -44 9 -145 28 -225 44 -184 36 -198 39 -240 46 -19 3 -75 14 -125 24 -49
11 -106 22 -125 25 -35 5 -117 21 -265 51 -44 9 -91 19 -105 21 -14 3 -81 16
-150 29 -69 14 -132 26 -140 27 -8 1 -35 -5 -60 -14z"/>
<path d="M4758 10713 c7 -3 16 -2 19 1 4 3 -2 6 -13 5 -11 0 -14 -3 -6 -6z"/>
<path d="M4790 10711 c0 -5 313 -91 344 -95 6 0 11 6 13 15 3 13 -15 20 -94
34 -54 10 -135 26 -180 35 -46 9 -83 14 -83 11z"/>
<path d="M10015 10684 c-66 -12 -133 -25 -150 -27 -85 -14 -339 -59 -405 -72
-41 -8 -129 -24 -195 -35 -66 -12 -172 -30 -235 -41 -63 -12 -128 -23 -145
-25 -16 -3 -50 -9 -75 -14 -42 -9 -229 -42 -310 -55 -19 -3 -84 -15 -144 -26
-60 -11 -121 -22 -135 -24 -78 -12 -182 -33 -188 -39 -3 -3 11 -7 33 -7 21 -1
48 -3 59 -4 11 -1 65 -6 120 -10 55 -4 108 -9 117 -10 9 -2 57 -7 105 -10 48
-4 100 -8 115 -10 14 -2 62 -6 105 -10 43 -4 94 -8 113 -10 19 -2 69 -6 111
-10 42 -3 91 -7 110 -10 19 -2 70 -7 114 -10 44 -4 96 -8 115 -10 19 -2 71 -6
115 -10 44 -4 94 -8 110 -10 17 -2 68 -6 115 -10 47 -4 96 -8 110 -11 14 -2
66 -6 115 -9 50 -3 99 -7 110 -10 30 -5 194 -18 240 -18 32 0 104 32 344 151
167 83 308 155 312 159 5 5 -37 26 -94 47 -56 21 -115 44 -132 52 -126 54
-406 158 -430 159 -16 1 -84 -9 -150 -21z"/>
<path d="M8267 10684 c-1 -1 -20 -5 -41 -8 -21 -4 -48 -8 -60 -11 -28 -6 -71
-13 -129 -21 -28 -4 -51 -13 -54 -21 -8 -21 -1 -23 42 -12 22 5 51 12 65 15
76 15 240 62 212 61 -18 -1 -34 -2 -35 -3z"/>
<path d="M4925 10499 c-2 -3 15 -6 38 -7 23 -1 67 -5 98 -8 36 -3 59 -1 64 5
4 7 -5 11 -22 12 -143 3 -175 3 -178 -2z"/>
<path d="M8011 10474 c6 -8 14 -12 18 -9 4 2 52 7 107 10 54 4 101 9 103 11 2
2 -51 3 -118 3 -102 -1 -120 -4 -110 -15z"/>
<path d="M4940 10209 c-46 -5 -49 -6 -17 -8 38 -3 87 -3 157 -2 22 1 40 5 40
11 0 10 -83 9 -180 -1z"/>
<path d="M8004 10198 c-3 -4 7 -8 23 -9 15 0 47 -2 71 -2 23 -1 50 1 60 5 10
4 -4 7 -33 8 -27 1 -65 3 -83 4 -18 1 -35 -1 -38 -6z"/>
<path d="M8186 10188 c3 -5 10 -6 15 -3 13 9 11 12 -6 12 -8 0 -12 -4 -9 -9z"/>
<path d="M5089 10046 c-2 -2 -35 -7 -74 -11 -38 -4 -72 -8 -76 -10 -3 -3 -41
-7 -85 -11 -43 -3 -86 -11 -94 -16 -12 -7 -11 -8 5 -4 11 2 81 8 155 12 74 4
146 8 160 9 14 2 33 3 43 4 26 2 21 31 -6 31 -13 0 -26 -2 -28 -4z"/>
<path d="M7980 10026 c0 -11 10 -16 33 -17 17 -1 48 -3 67 -4 19 -1 80 -6 135
-10 55 -3 109 -9 120 -11 16 -4 17 -3 5 4 -14 9 -47 15 -155 28 -27 4 -52 8
-56 10 -3 1 -37 6 -77 10 -62 5 -72 4 -72 -10z"/>
<path d="M8368 9983 c7 -3 16 -2 19 1 4 3 -2 6 -13 5 -11 0 -14 -3 -6 -6z"/>
<path d="M5128 9915 c-3 -3 -48 -17 -99 -30 -99 -26 -67 -25 64 2 42 9 77 20
77 25 0 9 -33 11 -42 3z"/>
<path d="M7956 9901 c5 -6 43 -17 84 -26 130 -27 138 -26 35 5 -105 31 -136
37 -119 21z"/>
<path d="M4960 9715 c-107 -30 -204 -56 -215 -59 -31 -7 -606 -165 -641 -177
-17 -5 -42 -12 -55 -14 -13 -3 -73 -19 -133 -36 -60 -17 -116 -32 -125 -34 -9
-2 -57 -15 -107 -29 -50 -15 -100 -29 -110 -31 -27 -6 -63 -16 -274 -75 -102
-28 -192 -53 -201 -55 -8 -2 -74 -20 -145 -40 -71 -20 -138 -38 -149 -40 -11
-3 -76 -20 -145 -40 -69 -19 -217 -60 -329 -90 -173 -47 -212 -61 -255 -93
-83 -61 -580 -431 -591 -440 -5 -4 -37 -28 -70 -52 -99 -74 -97 -71 -35 -65
73 6 177 14 275 20 44 3 107 7 140 9 33 3 103 8 155 11 52 3 115 8 140 10 25
2 87 7 139 10 89 7 101 10 230 72 75 36 168 80 206 98 39 18 171 81 295 140
124 59 259 123 300 142 41 20 127 60 190 90 63 31 149 71 190 90 41 20 127 60
190 90 123 59 275 132 405 193 120 56 378 179 610 290 219 104 296 140 305
140 5 0 12 5 15 10 9 14 11 15 -205 -45z"/>
<path d="M8085 9696 c136 -68 246 -121 610 -296 66 -32 210 -101 320 -155 110
-54 236 -114 280 -135 44 -21 174 -84 290 -140 115 -56 250 -121 300 -145 49
-23 176 -84 280 -136 105 -51 192 -93 195 -94 3 0 68 -31 145 -69 287 -140
331 -160 355 -162 43 -4 183 -15 235 -19 118 -9 202 -16 235 -20 19 -2 76 -7
125 -10 50 -3 108 -8 130 -10 22 -2 78 -7 125 -10 47 -3 94 -9 105 -12 18 -5
18 -4 5 11 -7 10 -34 32 -59 49 -25 17 -52 37 -61 44 -8 6 -42 32 -75 57 -33
25 -64 49 -70 53 -5 5 -26 19 -45 33 -19 13 -37 27 -40 30 -3 3 -70 54 -150
113 -80 60 -152 114 -161 121 -110 90 -122 96 -393 173 -143 41 -268 76 -276
78 -8 2 -190 54 -405 115 -214 61 -412 118 -440 125 -27 8 -302 86 -610 173
-308 88 -580 166 -605 173 -25 7 -49 14 -55 15 -5 2 -41 12 -80 23 -38 11
-126 36 -195 56 -69 20 -134 39 -145 41 -11 3 48 -29 130 -70z"/>
<path d="M5228 9605 c-20 -14 -39 -25 -41 -25 -3 0 -31 -16 -63 -35 -32 -19
-55 -35 -51 -35 17 0 216 108 210 113 -10 11 -16 9 -55 -18z"/>
<path d="M7840 9618 c1 -12 190 -115 190 -104 0 2 -21 17 -47 32 -27 16 -55
33 -64 39 -58 36 -79 45 -79 33z"/>
<path d="M5205 9408 c-154 -102 -200 -137 -130 -98 22 13 63 35 90 50 69 38
199 112 203 116 2 1 0 9 -5 17 -6 11 -39 -6 -158 -85z"/>
<path d="M7756 9491 c-8 -12 18 -30 159 -111 61 -34 126 -72 145 -83 67 -39
14 1 -129 98 -158 106 -166 111 -175 96z"/>
<path d="M5349 9297 c-53 -51 -79 -78 -60 -61 20 17 56 46 81 65 69 52 93 76
83 82 -5 3 -52 -36 -104 -86z"/>
<path d="M7670 9378 c0 -8 27 -36 60 -62 33 -26 65 -52 73 -59 54 -50 48 -37
-9 19 -111 109 -124 120 -124 102z"/>
<path d="M5475 9252 c-17 -15 -48 -41 -70 -57 -22 -17 -46 -36 -53 -42 -7 -7
-41 -34 -75 -60 -34 -26 -64 -50 -67 -53 -3 -3 -126 -102 -275 -220 -148 -118
-277 -220 -285 -227 -8 -7 -145 -116 -305 -243 -159 -127 -297 -236 -305 -243
-8 -7 -137 -109 -285 -227 -149 -118 -272 -217 -275 -221 -3 -3 -23 -19 -45
-35 -22 -16 -49 -37 -60 -46 -11 -10 -114 -92 -230 -184 -115 -91 -219 -173
-230 -182 -24 -20 -193 -155 -435 -347 -96 -77 -184 -147 -195 -156 -11 -10
-48 -39 -81 -66 -34 -26 -168 -132 -297 -235 l-234 -186 -159 -257 c-88 -141
-180 -289 -205 -328 -25 -40 -65 -103 -88 -142 -23 -38 -67 -108 -97 -155 -29
-47 -57 -91 -61 -99 -3 -8 -46 -78 -95 -155 -48 -77 -86 -142 -84 -144 3 -2
37 14 78 36 40 22 163 88 273 147 329 176 346 186 455 245 58 31 150 81 205
110 55 29 138 74 185 99 47 26 98 53 113 61 16 8 40 28 54 45 14 16 65 73 113
125 48 52 138 151 200 220 63 69 152 168 200 220 48 52 113 124 144 158 32 35
65 72 74 81 10 10 33 35 52 57 19 21 59 66 90 100 151 166 246 270 260 284 8
9 35 38 59 66 41 46 207 228 241 264 8 9 53 58 100 110 47 52 106 118 132 145
25 28 55 60 65 71 21 24 168 187 198 218 11 12 56 62 100 111 44 49 87 96 95
105 66 71 155 167 313 342 12 14 60 67 107 118 47 51 90 98 95 105 6 6 35 38
65 71 30 32 96 104 145 158 50 55 95 104 100 110 6 6 50 56 100 111 104 115
172 190 198 218 29 30 14 29 -18 -1z"/>
<path d="M7645 9230 c21 -25 44 -50 50 -56 5 -6 46 -51 90 -100 44 -48 87 -95
95 -104 8 -9 47 -51 85 -95 39 -43 79 -88 90 -99 11 -12 54 -59 95 -105 41
-46 86 -95 100 -110 33 -36 171 -187 301 -331 57 -63 108 -120 114 -126 5 -6
44 -49 85 -94 41 -46 80 -88 85 -95 67 -74 289 -317 315 -345 8 -9 49 -54 90
-100 41 -47 77 -87 80 -90 3 -3 53 -57 110 -120 58 -63 107 -117 110 -120 3
-3 25 -28 50 -55 62 -70 213 -236 285 -315 33 -36 94 -103 135 -149 41 -46 86
-95 100 -110 48 -52 189 -207 207 -227 10 -12 56 -63 103 -114 47 -51 92 -101
100 -110 13 -15 44 -50 175 -195 234 -258 249 -273 316 -308 30 -15 86 -44
124 -65 39 -22 102 -56 140 -77 168 -91 190 -103 330 -180 77 -43 261 -143
350 -190 33 -18 122 -66 198 -108 75 -41 137 -73 137 -70 0 3 -156 257 -347
564 -192 307 -355 571 -363 586 -8 16 -17 30 -20 33 -3 3 -20 30 -39 60 -18
30 -53 71 -78 90 -96 76 -219 173 -243 194 -14 11 -68 55 -120 96 -52 41 -104
82 -115 92 -20 16 -125 101 -294 236 -46 37 -88 72 -95 77 -6 6 -31 26 -56 45
-25 19 -54 43 -65 52 -11 9 -231 186 -490 392 -258 207 -477 382 -485 389 -8
7 -96 77 -195 156 -145 116 -791 634 -843 676 -7 5 -18 15 -25 20 -7 6 -183
147 -392 314 -209 167 -389 311 -400 320 -11 9 -2 -4 20 -29z"/>
<path d="M5564 9153 c-27 -32 -51 -60 -54 -63 -3 -3 -21 -23 -40 -45 -19 -22
9 3 63 55 53 52 97 98 97 102 0 20 -21 4 -66 -49z"/>
<path d="M7497 9203 c-3 -5 33 -47 81 -94 82 -80 86 -80 16 0 -18 20 -45 51
-61 70 -17 19 -33 30 -36 24z"/>
<path d="M5684 9098 c-15 -24 -51 -79 -79 -123 -135 -209 -129 -208 28 2 86
116 103 144 92 153 -11 9 -19 3 -41 -32z"/>
<path d="M7386 9132 c-3 -5 47 -78 110 -163 135 -179 167 -215 96 -109 -27 41
-79 121 -116 178 -63 97 -78 113 -90 94z"/>
<path d="M5841 9017 c-5 -13 -23 -54 -40 -92 -17 -37 -29 -70 -27 -72 4 -4 96
170 96 181 0 16 -22 3 -29 -17z"/>
<path d="M7255 9013 c4 -16 11 -33 17 -40 5 -7 25 -43 44 -80 42 -83 39 -67
-12 54 -37 88 -64 124 -49 66z"/>
<path d="M7112 8971 c-10 -6 1 -38 41 -122 29 -63 62 -133 72 -156 36 -81 26
-35 -14 63 -21 55 -50 127 -63 161 -17 43 -28 59 -36 54z"/>
<path d="M5979 8943 c-18 -51 -28 -77 -64 -172 -20 -51 -35 -95 -33 -97 2 -1
28 52 57 119 30 67 60 132 67 143 13 21 10 34 -8 34 -5 0 -13 -12 -19 -27z"/>
<path d="M5756 8825 c-9 -26 -7 -32 5 -12 6 10 9 21 6 23 -2 3 -7 -2 -11 -11z"/>
<path d="M3865 6010 c3 -5 8 -10 11 -10 2 0 4 5 4 10 0 6 -5 10 -11 10 -5 0
-7 -4 -4 -10z"/>
<path d="M10346 5227 c-72 -44 -148 -153 -162 -232 -2 -17 -7 -37 -9 -45 -14
-48 -19 -112 -19 -255 -1 -195 9 -300 44 -500 22 -123 20 -315 -5 -430 -9 -44
-19 -83 -21 -86 -2 -4 -50 -7 -106 -7 -170 -1 -321 -45 -417 -122 -80 -64
-162 -216 -177 -327 -3 -26 -8 -57 -11 -68 -10 -49 -4 -248 9 -265 7 -11 33
-44 57 -75 l44 -56 -54 -51 c-177 -164 -248 -227 -368 -328 -74 -61 -171 -139
-215 -173 -45 -34 -85 -65 -91 -70 -50 -42 -398 -265 -510 -327 -456 -253
-945 -413 -1390 -455 -38 -4 -83 -9 -100 -11 -36 -5 -408 -5 -450 0 -16 2 -66
7 -110 10 -44 4 -91 9 -105 12 -48 9 -65 11 -111 18 -71 10 -131 22 -161 32
-11 3 -30 7 -41 9 -42 4 -255 65 -407 115 -467 155 -1007 460 -1535 868 -132
102 -172 135 -219 177 -6 6 -48 41 -94 79 -45 38 -82 73 -82 78 0 5 22 37 50
71 27 34 51 69 51 77 6 59 3 206 -3 260 -24 190 -110 342 -236 417 -103 61
-203 84 -379 86 l-82 1 -10 40 c-32 131 -43 333 -22 440 11 54 18 107 27 196
4 30 10 84 14 120 9 71 6 397 -4 445 -25 125 -68 217 -126 274 -45 43 -86 61
-75 33 47 -121 50 -322 9 -522 -9 -41 -17 -82 -19 -91 -15 -75 -135 -439 -186
-564 -7 -16 -13 -34 -15 -40 -8 -28 -107 -251 -115 -260 -7 -7 -10 -7 -8 0 5
19 -14 110 -43 215 -34 123 -116 296 -186 395 -52 74 -192 229 -199 221 -3 -2
0 -28 6 -58 6 -29 14 -71 16 -93 3 -22 8 -51 10 -65 6 -32 6 -255 0 -297 -16
-112 -28 -172 -50 -241 -44 -141 -70 -265 -81 -387 -10 -104 -11 -287 -2 -335
5 -25 11 -57 13 -72 7 -37 53 -164 77 -213 32 -64 35 -65 75 -49 26 11 54 14
99 9 204 -19 320 -121 341 -297 5 -44 -3 -61 -67 -143 -39 -50 -128 -179 -153
-222 -18 -29 529 -513 883 -782 74 -56 142 -108 150 -114 45 -36 419 -289 495
-334 11 -6 57 -35 103 -62 46 -28 86 -51 89 -51 3 0 17 -8 31 -18 60 -42 381
-206 560 -286 159 -71 366 -151 547 -209 239 -77 256 -82 438 -123 178 -40
173 -39 237 -49 25 -4 54 -9 65 -11 10 -2 37 -6 60 -9 22 -3 51 -8 65 -10 14
-3 54 -7 90 -10 36 -4 79 -9 95 -12 48 -10 746 -12 795 -3 25 4 78 11 118 15
41 3 81 8 90 9 9 2 40 7 67 10 92 13 147 23 230 41 6 1 28 5 50 10 177 35 588
154 720 209 17 7 68 28 115 46 221 85 557 248 729 352 34 21 65 38 66 38 2 0
41 23 87 52 46 28 96 58 112 66 38 20 347 228 461 311 167 121 632 493 665
530 3 3 25 24 50 45 25 22 92 83 150 136 58 54 122 112 142 130 36 32 36 33
20 59 -23 37 -165 225 -172 229 -9 4 -3 125 10 189 13 63 50 149 78 179 76 86
247 136 335 99 l35 -14 35 67 c39 75 71 169 87 252 11 53 14 270 6 320 -3 14
-7 54 -11 90 -3 36 -7 72 -10 80 -2 8 -6 31 -9 50 -3 19 -17 73 -31 120 -68
226 -80 294 -80 470 0 139 11 235 36 334 6 21 8 41 5 44 -3 3 -42 -32 -86 -78
-153 -159 -250 -329 -314 -550 -16 -54 -36 -154 -39 -191 -2 -32 -11 -21 -45
59 -150 346 -261 669 -298 867 -38 200 -42 339 -14 450 9 39 21 78 25 88 8 20
-1 21 -29 4z"/>
</g>
</svg>
